# xmcd
#
# Track frame offsets: 
#        183
#        13180
#        26363
#        37318
#
# Disc length: 656 seconds
#
# Revision: 2
# Processed by: cddbd v1.5.2PL0 Copyright (c) Steve Scherf et al.
# Submitted via: ExactAudioCopy v0.99pb5
#
DISCID=2c028e04
DTITLE=Various Artist - Play Me The Blues
DYEAR=1991
DGENRE=Blues
TTITLE0=Muddy Waters - Mannish Boy
TTITLE1=B.B. King - When my heart beats like a hammer
TTITLE2=Eric Clapton - White snake
TTITLE3=John Lee Hooker - I'm in the mood
EXTD=
EXTT0=
EXTT1=
EXTT2=
EXTT3=
PLAYORDER=
